<?xml version="1.0" encoding="UTF-8"?>
<svg id="Layer_1" data-name="Layer 1" xmlns="http://www.w3.org/2000/svg" viewBox="0 0 144 144">
  <defs>
    <style>
      .cls-1 {
        fill: #fff;
      }

      .cls-2 {
        fill: #e36325;
      }
    </style>
  </defs>
  <path class="cls-2" d="M143.68,65.19c-.93-9.91-3.92-19.57-8.79-28.26-7.27-12.98-18.37-23.43-31.79-29.88C94.65,2.99,85.7.68,76.24.12c-.52-.03-1.43-.07-2.72-.12h-3.04c-.62.03-1.24.06-1.86.08-7.29.34-14.33,1.73-21.09,4.18C29.16,10.9,14.2,24.85,6.25,42.6,2.56,50.84.51,59.51.08,68.61c-.03.62-.06,1.24-.08,1.87v3.05c.03.58.05,1.16.08,1.74.39,8.83,2.33,17.27,5.82,25.32,3.44,7.95,8.19,15.07,14.24,21.36,6.26,6.5,13.47,11.64,21.64,15.43,15.56,7.22,33.4,8.57,49.89,3.91,22.37-6.33,40.42-23.28,48.22-45.22,3.51-9.87,4.77-20.44,3.8-30.87Z"/>
  <path class="cls-1" d="M104.37,75.48c0-.43-.24-.83-.62-1.03l-16.95-9.07c-.16-.09-.16-.32,0-.41l10.94-6.14c.4-.22.64-.64.64-1.09v-13.07c0-.09-.09-.14-.18-.1l-25.75,13.57c-.35.19-.57.54-.57.94v13.86c0,.19.2.3.36.21l9.56-5.36c.2-.12.45-.12.66,0l15.15,8.11c.17.09.17.33,0,.42l-12.1,6.98c-.19.11-.41.11-.6,0l-15.34-8.21c-.06-.03-.1-.1-.1-.17v-17.19c0-.18.1-.35.26-.43l28.3-14.91c.06-.03.11-.08.15-.14.53-.78.29-1.45-.61-1.94-6.14-3.38-13.34-6.97-22.67-11.77-1.81-.94-3.49-1.73-5.02-2.37-.53-.23-1.14-.2-1.66.06l-27.87,14.33c-.43.23-.71.67-.71,1.17v21.85c0,.18.1.34.25.42l41.18,22.04c.18.09.18.34,0,.44l-15.19,8.77c-.28.16-.63.17-.91.01l-18.11-9.69c-.13-.07-.14-.26,0-.33l13.39-7.51c.19-.1.19-.38,0-.48l-3.51-1.87c-.28-.15-.63-.15-.92,0l-15.72,8.82c-.29.16-.47.47-.47.8,0,6.25,0,12.26-.04,18.03,0,.6.05,1.08.17,1.45.05.17.17.31.33.4,10.46,5.63,18.57,9.92,24.33,12.85.84.43,1.64.39,2.41-.11.52-.34.81-.94.88-1.82.06-.76.09-1.61.09-2.57.01-5.04-.01-9.14-.08-12.3-.01-.72.07-1.28.25-1.69.04-.09.11-.18.2-.23l15.37-8.88c.17-.1.39.02.39.22v1.72c0,.33-.18.64-.47.8l-13.18,7.61c-.21.12-.33.34-.33.58v14.49c0,.17.18.28.33.19l33.43-18.77c.23-.13.39-.34.44-.6.14-.68.21-1.47.21-2.35-.03-4.67-.04-10.84-.02-18.53ZM65.24,72.43c0,.15-.16.25-.3.18l-21.17-11.33c-.07-.04-.11-.1-.11-.18v-15.16c0-.15.16-.25.3-.18l21.17,11.33c.07.04.11.1.11.18v15.16ZM67.06,53.28l-20.18-10.79c-.23-.13-.23-.47,0-.6l22.16-11.39c.09-.05.21-.05.31,0l20.34,10.43c.24.12.24.47,0,.59l-22.33,11.76c-.1.05-.22.05-.32,0ZM63.56,112.28c0,.16-.17.26-.31.19l-19.43-10.4c-.07-.04-.11-.11-.11-.19v-12.85c0-.16.17-.26.31-.19l19.43,10.4c.07.04.11.11.11.19v12.85ZM100.43,93.77c0,.14-.07.26-.19.33l-11.6,6.7c-.25.15-.57-.04-.57-.33v-13.64c0-.14.07-.26.19-.33l11.6-6.7c.25-.15.57.04.57.33v13.64Z"/>
</svg>
