<?xml version="1.0" encoding="UTF-8"?>
<svg id="Layer_1" data-name="Layer 1" xmlns="http://www.w3.org/2000/svg" viewBox="0 0 144 144">
  <defs>
    <style>
      .cls-1 {
        fill: #fdfefe;
      }

      .cls-2 {
        fill: #00bbb4;
      }
    </style>
  </defs>
  <circle class="cls-2" cx="72" cy="72" r="72"/>
  <g>
    <path class="cls-1" d="M96.79,91.78c-.32-.61-.63-1.21-.91-1.8-6.67-13.98-12.84-26.31-20.35-41.3-.4-.79-.91-1.06-1.8-1.05-.91.02-2.21.03-3.93.02-.99,0-1.59.34-2.04,1.19-3.35,6.3-6.61,12.39-9.78,18.27-.76,1.41-1.63,3.07-2.62,4.98-.03.06-.03.13,0,.19l5.38,10.88c.04.09.17.09.21,0l10.42-18.04c.06-.1.21-.1.27,0l19.06,38.53s.04.05.07.06c.25.11.52.12.79.03.09-.03.16-.09.2-.18l5.23-10.95c.04-.07.05-.16.03-.24-.03-.18-.1-.38-.23-.62Z"/>
    <path class="cls-1" d="M71.81,76.48c-.2-.41-.39-.76-.59-1.07-.04-.06-.13-.06-.17,0-.39.52-.72,1.04-.97,1.55-.39.78-.94,1.54-1.37,2.29-2.42,4.23-4.99,8.57-7.7,13.02-.17.28-.3.44-.39.49-.06.03-.14.01-.18-.04-.38-.56-.71-1.16-1.01-1.79-.42-.88-1.15-2.35-2.22-4.42-1.78-3.47-3.88-7.64-6.28-12.49-2.5-5.05-6.28-12.58-11.35-22.59-.52-1.02-.92-1.83-1.2-2.42-.63-1.3-1.77-1.24-3.23-1.24-1.74,0-4.04,0-6.91.01-.55,0-.9.05-1.03.14-.73.48-.89,1.14-.47,1.98,7.72,15.6,14.67,29.45,20.84,41.54.36.7.58,1.13.66,1.27.58,1.03,1.08,2.15,1.61,3.17,3,5.82,6.09,11.9,9.26,18.22.36.71,1.43.9,1.87.11,4.23-7.68,8.32-15,12.26-21.94,1.27-2.24,2.35-4.05,3.23-5.43.14-.22.15-.46.02-.73-1.4-2.93-2.95-6.14-4.66-9.63Z"/>
    <path class="cls-1" d="M115.47,47.74c-1.83.03-4.19.03-7.09,0-1.14-.01-2.12.19-2.6,1.15-3.41,6.86-6.76,13.53-10.06,20-.52,1.02-1.31,2.62-2.36,4.78-.02.05-.03.11,0,.16.46,1.1,1.14,2.19,1.6,3.24.62,1.42,1.01,2.37,1.62,3.44.38.66.64,1.16.79,1.49.84,1.84,1.53,3.31,2.09,4.4.04.08.09.12.15.14.12.03.21,0,.26-.13.4-.96.78-1.79,1.14-2.5,1.08-2.16,1.82-3.91,2.93-6.13.3-.61.95-1.95,1.95-4.03,5.6-11.72,9.36-19.63,11.28-23.74.24-.5.35-.85.35-1.03-.03-1.16-.91-1.28-2.03-1.27Z"/>
  </g>
</svg>
